# xmcd
#
# Track frame offsets:
#	167
#	19800
#	34717
#	61437
#	76595
#	96042
#	110712
#	132905
#	147537
#	177107
#	200040
#	218617
#
# Disc length: 3213 seconds
#
# Revision: 0
# Processed by: cddbd v1.5.1PL0 Copyright (c) Steve Scherf et al.
# Submitted via: dBpowerAMP V4.0
#
DISCID=a60c8b0c
DTITLE=Juke Joints - Live In Ireland
DYEAR=2001
DGENRE=Blues
TTITLE0=Soul On Fire
TTITLE1=Don't Give It Up
TTITLE2=Blues Had A Baby
TTITLE3=Humping To Please
TTITLE4=Youghal Song
TTITLE5=Bankers Blues
TTITLE6=Going To My Hometown
TTITLE7=Mojo Hand
TTITLE8=Calling Card
TTITLE9=Out On The Western Plain
TTITLE10=My Baby
TTITLE11=So Long Baby, Goodbye
EXTD=
EXTT0=
EXTT1=
EXTT2=
EXTT3=
EXTT4=
EXTT5=
EXTT6=
EXTT7=
EXTT8=
EXTT9=
EXTT10=
EXTT11=
PLAYORDER=
